<svg id="Layer_1" data-name="Layer 1" xmlns="http://www.w3.org/2000/svg" viewBox="0 0 1080 1080"><defs><style>.cls-1{font-size:70.12px;font-family:FONTSPRINGDEMO-AllRoundGothicMediumRegular, FONTSPRING DEMO - All Round Gothic Medium;font-weight:500;}.cls-1,.cls-3{fill:#001a6e;}.cls-2{letter-spacing:-0.12em;}</style></defs><text class="cls-1" transform="translate(192.08 678.62)">GAC RESIDENCE <tspan class="cls-2" x="561.06" y="0">L</tspan><tspan x="592.12" y="0">TD</tspan></text><path class="cls-3" d="M401.62,498.38v41l-32.21,20.76a9.66,9.66,0,0,1-14.9-8.12V516.29a9.68,9.68,0,0,1,4.42-8.12l27.79-17.91A9.66,9.66,0,0,1,401.62,498.38Z"/><path class="cls-3" d="M587.78,432.52v41a9.66,9.66,0,0,1-14.9,8.12l-40.81-26.36-91.8,59.19V461a9.67,9.67,0,0,1,4.43-8.13l82.13-52.95a9.66,9.66,0,0,1,10.48,0Z"/><path class="cls-3" d="M709.63,516.3V552a9.67,9.67,0,0,1-14.9,8.12l-83.19-53.6a9.67,9.67,0,0,1-4.43-8.13V445l98.09,63.21A9.66,9.66,0,0,1,709.63,516.3Z"/><path class="cls-3" d="M440.27,514.42v53.44a9.66,9.66,0,0,1-4.43,8.12l-19.32,12.47a9.66,9.66,0,0,1-14.9-8.12v-41Z"/><path class="cls-3" d="M607.11,391.81v53.44l-19.33-12.46v-41a9.66,9.66,0,0,1,14.9-8.12h0A9.67,9.67,0,0,1,607.11,391.81Z"/></svg>