<svg id="Layer_1" data-name="Layer 1" xmlns="http://www.w3.org/2000/svg" viewBox="0 0 359 214"><defs><style>.cls-1{fill:#001a6e;}</style></defs><path class="cls-1" d="M49.62,120.38v41L17.41,182.12A9.66,9.66,0,0,1,2.51,174V138.29a9.68,9.68,0,0,1,4.42-8.12l27.79-17.91A9.66,9.66,0,0,1,49.62,120.38Z"/><path class="cls-1" d="M235.78,54.52v41a9.66,9.66,0,0,1-14.9,8.12L180.07,77.24l-91.8,59.19V83a9.67,9.67,0,0,1,4.43-8.13l82.13-52.95a9.66,9.66,0,0,1,10.48,0Z"/><path class="cls-1" d="M357.63,138.3V174a9.67,9.67,0,0,1-14.9,8.12l-83.19-53.6a9.67,9.67,0,0,1-4.43-8.13V67l98.09,63.21A9.66,9.66,0,0,1,357.63,138.3Z"/><path class="cls-1" d="M88.27,136.42v53.44A9.66,9.66,0,0,1,83.84,198L64.52,210.45a9.66,9.66,0,0,1-14.9-8.12v-41Z"/><path class="cls-1" d="M255.11,13.81V67.25L235.78,54.79v-41a9.66,9.66,0,0,1,14.9-8.12h0A9.67,9.67,0,0,1,255.11,13.81Z"/></svg>